ISO-10303-21;
HEADER;
FILE_DESCRIPTION((''),'2;1');
FILE_NAME('197084013','2014-09-12T',('Me'),(''),
'PRO/ENGINEER BY PARAMETRIC TECHNOLOGY CORPORATION, 2011490',
'PRO/ENGINEER BY PARAMETRIC TECHNOLOGY CORPORATION, 2011490','');
FILE_SCHEMA(('CONFIG_CONTROL_DESIGN'));
ENDSEC;
DATA;
#1=CARTESIAN_POINT('',(0.E0,1.25E-1,-1.6E-2));
#2=DIRECTION('',(0.E0,0.E0,-1.E0));
#3=DIRECTION('',(1.E0,0.E0,0.E0));
#4=AXIS2_PLACEMENT_3D('',#1,#2,#3);
#6=CARTESIAN_POINT('',(0.E0,1.25E-1,-1.6E-2));
#7=DIRECTION('',(0.E0,0.E0,-1.E0));
#8=DIRECTION('',(-1.E0,0.E0,0.E0));
#9=AXIS2_PLACEMENT_3D('',#6,#7,#8);
#11=DIRECTION('',(7.071067811865E-1,-7.071067811865E-1,0.E0));
#12=VECTOR('',#11,7.071067811865E-3);
#13=CARTESIAN_POINT('',(8.85E-2,2.2E-1,-1.6E-2));
#14=LINE('',#13,#12);
#15=DIRECTION('',(1.E0,0.E0,0.E0));
#16=VECTOR('',#15,1.77E-1);
#17=CARTESIAN_POINT('',(-8.85E-2,2.2E-1,-1.6E-2));
#18=LINE('',#17,#16);
#19=DIRECTION('',(7.071067811865E-1,7.071067811865E-1,0.E0));
#20=VECTOR('',#19,7.071067811865E-3);
#21=CARTESIAN_POINT('',(-9.35E-2,2.15E-1,-1.6E-2));
#22=LINE('',#21,#20);
#23=DIRECTION('',(0.E0,-1.E0,0.E0));
#24=VECTOR('',#23,2.15E-1);
#25=CARTESIAN_POINT('',(-9.35E-2,2.15E-1,-1.6E-2));
#26=LINE('',#25,#24);
#27=DIRECTION('',(-1.E0,0.E0,0.E0));
#28=VECTOR('',#27,3.15E-2);
#29=CARTESIAN_POINT('',(-9.35E-2,0.E0,-1.6E-2));
#30=LINE('',#29,#28);
#31=DIRECTION('',(0.E0,-1.E0,0.E0));
#32=VECTOR('',#31,1.65E-1);
#33=CARTESIAN_POINT('',(-1.25E-1,0.E0,-1.6E-2));
#34=LINE('',#33,#32);
#35=DIRECTION('',(1.304834939252E-1,-9.914504817756E-1,0.E0));
#36=VECTOR('',#35,7.762087348130E-2);
#37=CARTESIAN_POINT('',(-1.25E-1,-1.65E-1,-1.6E-2));
#38=LINE('',#37,#36);
#39=CARTESIAN_POINT('',(-1.E-1,-2.4E-1,-1.6E-2));
#40=DIRECTION('',(0.E0,0.E0,1.E0));
#41=DIRECTION('',(-9.914504817756E-1,-1.304834939252E-1,0.E0));
#42=AXIS2_PLACEMENT_3D('',#39,#40,#41);
#44=DIRECTION('',(1.049723756906E-1,9.944751381215E-1,0.E0));
#45=VECTOR('',#44,7.7E-2);
#46=CARTESIAN_POINT('',(-8.508287292818E-2,-2.415745856354E-1,-1.6E-2));
#47=LINE('',#46,#45);
#48=DIRECTION('',(0.E0,1.E0,0.E0));
#49=VECTOR('',#48,6.E-2);
#50=CARTESIAN_POINT('',(-7.7E-2,-1.65E-1,-1.6E-2));
#51=LINE('',#50,#49);
#52=DIRECTION('',(1.E0,0.E0,0.E0));
#53=VECTOR('',#52,1.54E-1);
#54=CARTESIAN_POINT('',(-7.7E-2,-1.05E-1,-1.6E-2));
#55=LINE('',#54,#53);
#56=DIRECTION('',(0.E0,-1.E0,0.E0));
#57=VECTOR('',#56,6.E-2);
#58=CARTESIAN_POINT('',(7.7E-2,-1.05E-1,-1.6E-2));
#59=LINE('',#58,#57);
#60=DIRECTION('',(1.049723756906E-1,-9.944751381215E-1,0.E0));
#61=VECTOR('',#60,7.7E-2);
#62=CARTESIAN_POINT('',(7.7E-2,-1.65E-1,-1.6E-2));
#63=LINE('',#62,#61);
#64=CARTESIAN_POINT('',(1.E-1,-2.4E-1,-1.6E-2));
#65=DIRECTION('',(0.E0,0.E0,1.E0));
#66=DIRECTION('',(-9.944751381215E-1,-1.049723756906E-1,0.E0));
#67=AXIS2_PLACEMENT_3D('',#64,#65,#66);
#69=DIRECTION('',(1.304834939252E-1,9.914504817756E-1,0.E0));
#70=VECTOR('',#69,7.762087348130E-2);
#71=CARTESIAN_POINT('',(1.148717572266E-1,-2.419572524089E-1,-1.6E-2));
#72=LINE('',#71,#70);
#73=DIRECTION('',(0.E0,1.E0,0.E0));
#74=VECTOR('',#73,1.65E-1);
#75=CARTESIAN_POINT('',(1.25E-1,-1.65E-1,-1.6E-2));
#76=LINE('',#75,#74);
#77=DIRECTION('',(-1.E0,0.E0,0.E0));
#78=VECTOR('',#77,3.15E-2);
#79=CARTESIAN_POINT('',(1.25E-1,0.E0,-1.6E-2));
#80=LINE('',#79,#78);
#81=DIRECTION('',(0.E0,1.E0,0.E0));
#82=VECTOR('',#81,2.15E-1);
#83=CARTESIAN_POINT('',(9.35E-2,0.E0,-1.6E-2));
#84=LINE('',#83,#82);
#85=DIRECTION('',(0.E0,0.E0,1.E0));
#86=VECTOR('',#85,3.2E-2);
#87=CARTESIAN_POINT('',(2.75E-2,1.25E-1,-1.6E-2));
#88=LINE('',#87,#86);
#89=DIRECTION('',(0.E0,0.E0,1.E0));
#90=VECTOR('',#89,3.2E-2);
#91=CARTESIAN_POINT('',(-2.75E-2,1.25E-1,-1.6E-2));
#92=LINE('',#91,#90);
#93=CARTESIAN_POINT('',(0.E0,1.25E-1,1.6E-2));
#94=DIRECTION('',(0.E0,0.E0,-1.E0));
#95=DIRECTION('',(1.E0,0.E0,0.E0));
#96=AXIS2_PLACEMENT_3D('',#93,#94,#95);
#98=CARTESIAN_POINT('',(0.E0,1.25E-1,1.6E-2));
#99=DIRECTION('',(0.E0,0.E0,-1.E0));
#100=DIRECTION('',(-1.E0,0.E0,0.E0));
#101=AXIS2_PLACEMENT_3D('',#98,#99,#100);
#103=DIRECTION('',(-7.071067811865E-1,7.071067811865E-1,0.E0));
#104=VECTOR('',#103,7.071067811865E-3);
#105=CARTESIAN_POINT('',(9.35E-2,2.15E-1,1.6E-2));
#106=LINE('',#105,#104);
#107=DIRECTION('',(0.E0,1.E0,0.E0));
#108=VECTOR('',#107,2.15E-1);
#109=CARTESIAN_POINT('',(9.35E-2,0.E0,1.6E-2));
#110=LINE('',#109,#108);
#111=DIRECTION('',(-1.E0,0.E0,0.E0));
#112=VECTOR('',#111,3.15E-2);
#113=CARTESIAN_POINT('',(1.25E-1,0.E0,1.6E-2));
#114=LINE('',#113,#112);
#115=DIRECTION('',(0.E0,1.E0,0.E0));
#116=VECTOR('',#115,1.65E-1);
#117=CARTESIAN_POINT('',(1.25E-1,-1.65E-1,1.6E-2));
#118=LINE('',#117,#116);
#119=DIRECTION('',(1.304834939252E-1,9.914504817756E-1,0.E0));
#120=VECTOR('',#119,7.762087348130E-2);
#121=CARTESIAN_POINT('',(1.148717572266E-1,-2.419572524089E-1,1.6E-2));
#122=LINE('',#121,#120);
#123=CARTESIAN_POINT('',(1.E-1,-2.4E-1,1.6E-2));
#124=DIRECTION('',(0.E0,0.E0,1.E0));
#125=DIRECTION('',(-9.944751381215E-1,-1.049723756906E-1,0.E0));
#126=AXIS2_PLACEMENT_3D('',#123,#124,#125);
#128=DIRECTION('',(1.049723756906E-1,-9.944751381215E-1,0.E0));
#129=VECTOR('',#128,7.7E-2);
#130=CARTESIAN_POINT('',(7.7E-2,-1.65E-1,1.6E-2));
#131=LINE('',#130,#129);
#132=DIRECTION('',(0.E0,-1.E0,0.E0));
#133=VECTOR('',#132,6.E-2);
#134=CARTESIAN_POINT('',(7.7E-2,-1.05E-1,1.6E-2));
#135=LINE('',#134,#133);
#136=DIRECTION('',(1.E0,0.E0,0.E0));
#137=VECTOR('',#136,1.54E-1);
#138=CARTESIAN_POINT('',(-7.7E-2,-1.05E-1,1.6E-2));
#139=LINE('',#138,#137);
#140=DIRECTION('',(0.E0,1.E0,0.E0));
#141=VECTOR('',#140,6.E-2);
#142=CARTESIAN_POINT('',(-7.7E-2,-1.65E-1,1.6E-2));
#143=LINE('',#142,#141);
#144=DIRECTION('',(1.049723756906E-1,9.944751381215E-1,0.E0));
#145=VECTOR('',#144,7.7E-2);
#146=CARTESIAN_POINT('',(-8.508287292818E-2,-2.415745856354E-1,1.6E-2));
#147=LINE('',#146,#145);
#148=CARTESIAN_POINT('',(-1.E-1,-2.4E-1,1.6E-2));
#149=DIRECTION('',(0.E0,0.E0,1.E0));
#150=DIRECTION('',(-9.914504817756E-1,-1.304834939252E-1,0.E0));
#151=AXIS2_PLACEMENT_3D('',#148,#149,#150);
#153=DIRECTION('',(1.304834939252E-1,-9.914504817756E-1,0.E0));
#154=VECTOR('',#153,7.762087348130E-2);
#155=CARTESIAN_POINT('',(-1.25E-1,-1.65E-1,1.6E-2));
#156=LINE('',#155,#154);
#157=DIRECTION('',(0.E0,-1.E0,0.E0));
#158=VECTOR('',#157,1.65E-1);
#159=CARTESIAN_POINT('',(-1.25E-1,0.E0,1.6E-2));
#160=LINE('',#159,#158);
#161=DIRECTION('',(-1.E0,0.E0,0.E0));
#162=VECTOR('',#161,3.15E-2);
#163=CARTESIAN_POINT('',(-9.35E-2,0.E0,1.6E-2));
#164=LINE('',#163,#162);
#165=DIRECTION('',(0.E0,-1.E0,0.E0));
#166=VECTOR('',#165,2.15E-1);
#167=CARTESIAN_POINT('',(-9.35E-2,2.15E-1,1.6E-2));
#168=LINE('',#167,#166);
#169=DIRECTION('',(-7.071067811865E-1,-7.071067811865E-1,0.E0));
#170=VECTOR('',#169,7.071067811865E-3);
#171=CARTESIAN_POINT('',(-8.85E-2,2.2E-1,1.6E-2));
#172=LINE('',#171,#170);
#173=DIRECTION('',(-1.E0,0.E0,0.E0));
#174=VECTOR('',#173,1.77E-1);
#175=CARTESIAN_POINT('',(8.85E-2,2.2E-1,1.6E-2));
#176=LINE('',#175,#174);
#177=DIRECTION('',(-7.016738431599E-1,7.016738431599E-1,-1.237240302065E-1));
#178=VECTOR('',#177,4.988072498525E-2);
#179=CARTESIAN_POINT('',(8.85E-2,2.2E-1,1.6E-2));
#180=LINE('',#179,#178);
#181=DIRECTION('',(0.E0,0.E0,-1.E0));
#182=VECTOR('',#181,3.2E-2);
#183=CARTESIAN_POINT('',(9.35E-2,2.15E-1,1.6E-2));
#184=LINE('',#183,#182);
#185=DIRECTION('',(0.E0,0.E0,1.E0));
#186=VECTOR('',#185,3.2E-2);
#187=CARTESIAN_POINT('',(9.35E-2,0.E0,-1.6E-2));
#188=LINE('',#187,#186);
#189=DIRECTION('',(0.E0,0.E0,1.E0));
#190=VECTOR('',#189,3.2E-2);
#191=CARTESIAN_POINT('',(1.25E-1,0.E0,-1.6E-2));
#192=LINE('',#191,#190);
#193=DIRECTION('',(0.E0,0.E0,1.E0));
#194=VECTOR('',#193,3.2E-2);
#195=CARTESIAN_POINT('',(1.25E-1,-1.65E-1,-1.6E-2));
#196=LINE('',#195,#194);
#197=DIRECTION('',(0.E0,0.E0,1.E0));
#198=VECTOR('',#197,3.2E-2);
#199=CARTESIAN_POINT('',(1.148717572266E-1,-2.419572524089E-1,-1.6E-2));
#200=LINE('',#199,#198);
#201=DIRECTION('',(0.E0,0.E0,1.E0));
#202=VECTOR('',#201,3.2E-2);
#203=CARTESIAN_POINT('',(8.508287292818E-2,-2.415745856354E-1,-1.6E-2));
#204=LINE('',#203,#202);
#205=DIRECTION('',(0.E0,0.E0,1.E0));
#206=VECTOR('',#205,3.2E-2);
#207=CARTESIAN_POINT('',(7.7E-2,-1.65E-1,-1.6E-2));
#208=LINE('',#207,#206);
#209=DIRECTION('',(0.E0,0.E0,1.E0));
#210=VECTOR('',#209,3.2E-2);
#211=CARTESIAN_POINT('',(7.7E-2,-1.05E-1,-1.6E-2));
#212=LINE('',#211,#210);
#213=DIRECTION('',(0.E0,0.E0,1.E0));
#214=VECTOR('',#213,3.2E-2);
#215=CARTESIAN_POINT('',(-7.7E-2,-1.05E-1,-1.6E-2));
#216=LINE('',#215,#214);
#217=DIRECTION('',(0.E0,0.E0,1.E0));
#218=VECTOR('',#217,3.2E-2);
#219=CARTESIAN_POINT('',(-7.7E-2,-1.65E-1,-1.6E-2));
#220=LINE('',#219,#218);
#221=DIRECTION('',(0.E0,0.E0,1.E0));
#222=VECTOR('',#221,3.2E-2);
#223=CARTESIAN_POINT('',(-8.508287292818E-2,-2.415745856354E-1,-1.6E-2));
#224=LINE('',#223,#222);
#225=DIRECTION('',(0.E0,0.E0,1.E0));
#226=VECTOR('',#225,3.2E-2);
#227=CARTESIAN_POINT('',(-1.148717572266E-1,-2.419572524089E-1,-1.6E-2));
#228=LINE('',#227,#226);
#229=DIRECTION('',(0.E0,0.E0,1.E0));
#230=VECTOR('',#229,3.2E-2);
#231=CARTESIAN_POINT('',(-1.25E-1,-1.65E-1,-1.6E-2));
#232=LINE('',#231,#230);
#233=DIRECTION('',(0.E0,0.E0,1.E0));
#234=VECTOR('',#233,3.2E-2);
#235=CARTESIAN_POINT('',(-1.25E-1,0.E0,-1.6E-2));
#236=LINE('',#235,#234);
#237=DIRECTION('',(0.E0,0.E0,1.E0));
#238=VECTOR('',#237,3.2E-2);
#239=CARTESIAN_POINT('',(-9.35E-2,0.E0,-1.6E-2));
#240=LINE('',#239,#238);
#241=DIRECTION('',(0.E0,0.E0,-1.E0));
#242=VECTOR('',#241,3.2E-2);
#243=CARTESIAN_POINT('',(-9.35E-2,2.15E-1,1.6E-2));
#244=LINE('',#243,#242);
#245=DIRECTION('',(7.016738431599E-1,7.016738431599E-1,1.237240302065E-1));
#246=VECTOR('',#245,4.988072498525E-2);
#247=CARTESIAN_POINT('',(-8.85E-2,2.2E-1,-1.6E-2));
#248=LINE('',#247,#246);
#249=DIRECTION('',(-7.016738431599E-1,7.016738431599E-1,1.237240302065E-1));
#250=VECTOR('',#249,4.988072498525E-2);
#251=CARTESIAN_POINT('',(8.85E-2,2.2E-1,-1.6E-2));
#252=LINE('',#251,#250);
#253=DIRECTION('',(0.E0,0.E0,-1.E0));
#254=VECTOR('',#253,1.965711135041E-2);
#255=CARTESIAN_POINT('',(5.35E-2,2.55E-1,9.828555675204E-3));
#256=LINE('',#255,#254);
#257=DIRECTION('',(-1.E0,0.E0,0.E0));
#258=VECTOR('',#257,1.07E-1);
#259=CARTESIAN_POINT('',(5.35E-2,2.55E-1,9.828555675204E-3));
#260=LINE('',#259,#258);
#261=DIRECTION('',(0.E0,0.E0,-1.E0));
#262=VECTOR('',#261,1.965711135041E-2);
#263=CARTESIAN_POINT('',(-5.35E-2,2.55E-1,9.828555675204E-3));
#264=LINE('',#263,#262);
#265=DIRECTION('',(1.E0,0.E0,0.E0));
#266=VECTOR('',#265,1.07E-1);
#267=CARTESIAN_POINT('',(-5.35E-2,2.55E-1,-9.828555675204E-3));
#268=LINE('',#267,#266);
#269=DIRECTION('',(7.016738431599E-1,7.016738431599E-1,-1.237240302065E-1));
#270=VECTOR('',#269,4.988072498525E-2);
#271=CARTESIAN_POINT('',(-8.85E-2,2.2E-1,1.6E-2));
#272=LINE('',#271,#270);
#273=CARTESIAN_POINT('',(2.75E-2,1.25E-1,-1.6E-2));
#274=CARTESIAN_POINT('',(-2.75E-2,1.25E-1,-1.6E-2));
#275=VERTEX_POINT('',#273);
#276=VERTEX_POINT('',#274);
#277=CARTESIAN_POINT('',(-9.35E-2,0.E0,-1.6E-2));
#278=CARTESIAN_POINT('',(-1.25E-1,0.E0,-1.6E-2));
#279=VERTEX_POINT('',#277);
#280=VERTEX_POINT('',#278);
#281=CARTESIAN_POINT('',(-1.25E-1,-1.65E-1,-1.6E-2));
#282=VERTEX_POINT('',#281);
#283=CARTESIAN_POINT('',(-1.148717572266E-1,-2.419572524089E-1,-1.6E-2));
#284=VERTEX_POINT('',#283);
#285=CARTESIAN_POINT('',(-8.508287292818E-2,-2.415745856354E-1,-1.6E-2));
#286=VERTEX_POINT('',#285);
#287=CARTESIAN_POINT('',(-7.7E-2,-1.65E-1,-1.6E-2));
#288=VERTEX_POINT('',#287);
#289=CARTESIAN_POINT('',(-7.7E-2,-1.05E-1,-1.6E-2));
#290=VERTEX_POINT('',#289);
#291=CARTESIAN_POINT('',(7.7E-2,-1.05E-1,-1.6E-2));
#292=VERTEX_POINT('',#291);
#293=CARTESIAN_POINT('',(7.7E-2,-1.65E-1,-1.6E-2));
#294=VERTEX_POINT('',#293);
#295=CARTESIAN_POINT('',(8.508287292818E-2,-2.415745856354E-1,-1.6E-2));
#296=VERTEX_POINT('',#295);
#297=CARTESIAN_POINT('',(1.148717572266E-1,-2.419572524089E-1,-1.6E-2));
#298=VERTEX_POINT('',#297);
#299=CARTESIAN_POINT('',(1.25E-1,-1.65E-1,-1.6E-2));
#300=VERTEX_POINT('',#299);
#301=CARTESIAN_POINT('',(1.25E-1,0.E0,-1.6E-2));
#302=VERTEX_POINT('',#301);
#303=CARTESIAN_POINT('',(9.35E-2,0.E0,-1.6E-2));
#304=VERTEX_POINT('',#303);
#305=CARTESIAN_POINT('',(2.75E-2,1.25E-1,1.6E-2));
#306=CARTESIAN_POINT('',(-2.75E-2,1.25E-1,1.6E-2));
#307=VERTEX_POINT('',#305);
#308=VERTEX_POINT('',#306);
#309=CARTESIAN_POINT('',(-9.35E-2,0.E0,1.6E-2));
#310=CARTESIAN_POINT('',(-1.25E-1,0.E0,1.6E-2));
#311=VERTEX_POINT('',#309);
#312=VERTEX_POINT('',#310);
#313=CARTESIAN_POINT('',(-1.25E-1,-1.65E-1,1.6E-2));
#314=VERTEX_POINT('',#313);
#315=CARTESIAN_POINT('',(-1.148717572266E-1,-2.419572524089E-1,1.6E-2));
#316=VERTEX_POINT('',#315);
#317=CARTESIAN_POINT('',(-8.508287292818E-2,-2.415745856354E-1,1.6E-2));
#318=VERTEX_POINT('',#317);
#319=CARTESIAN_POINT('',(-7.7E-2,-1.65E-1,1.6E-2));
#320=VERTEX_POINT('',#319);
#321=CARTESIAN_POINT('',(-7.7E-2,-1.05E-1,1.6E-2));
#322=VERTEX_POINT('',#321);
#323=CARTESIAN_POINT('',(7.7E-2,-1.05E-1,1.6E-2));
#324=VERTEX_POINT('',#323);
#325=CARTESIAN_POINT('',(7.7E-2,-1.65E-1,1.6E-2));
#326=VERTEX_POINT('',#325);
#327=CARTESIAN_POINT('',(8.508287292818E-2,-2.415745856354E-1,1.6E-2));
#328=VERTEX_POINT('',#327);
#329=CARTESIAN_POINT('',(1.148717572266E-1,-2.419572524089E-1,1.6E-2));
#330=VERTEX_POINT('',#329);
#331=CARTESIAN_POINT('',(1.25E-1,-1.65E-1,1.6E-2));
#332=VERTEX_POINT('',#331);
#333=CARTESIAN_POINT('',(1.25E-1,0.E0,1.6E-2));
#334=VERTEX_POINT('',#333);
#335=CARTESIAN_POINT('',(9.35E-2,0.E0,1.6E-2));
#336=VERTEX_POINT('',#335);
#337=CARTESIAN_POINT('',(8.85E-2,2.2E-1,-1.6E-2));
#338=CARTESIAN_POINT('',(9.35E-2,2.15E-1,-1.6E-2));
#339=VERTEX_POINT('',#337);
#340=VERTEX_POINT('',#338);
#341=CARTESIAN_POINT('',(9.35E-2,2.15E-1,1.6E-2));
#342=VERTEX_POINT('',#341);
#343=CARTESIAN_POINT('',(8.85E-2,2.2E-1,1.6E-2));
#344=VERTEX_POINT('',#343);
#345=CARTESIAN_POINT('',(5.35E-2,2.55E-1,9.828555675204E-3));
#346=CARTESIAN_POINT('',(5.35E-2,2.55E-1,-9.828555675204E-3));
#347=VERTEX_POINT('',#345);
#348=VERTEX_POINT('',#346);
#349=CARTESIAN_POINT('',(-9.35E-2,2.15E-1,-1.6E-2));
#350=CARTESIAN_POINT('',(-8.85E-2,2.2E-1,-1.6E-2));
#351=VERTEX_POINT('',#349);
#352=VERTEX_POINT('',#350);
#353=CARTESIAN_POINT('',(-5.35E-2,2.55E-1,9.828555675204E-3));
#354=CARTESIAN_POINT('',(-5.35E-2,2.55E-1,-9.828555675204E-3));
#355=VERTEX_POINT('',#353);
#356=VERTEX_POINT('',#354);
#357=CARTESIAN_POINT('',(-8.85E-2,2.2E-1,1.6E-2));
#358=CARTESIAN_POINT('',(-9.35E-2,2.15E-1,1.6E-2));
#359=VERTEX_POINT('',#357);
#360=VERTEX_POINT('',#358);
#361=CARTESIAN_POINT('',(0.E0,0.E0,-1.6E-2));
#362=DIRECTION('',(0.E0,0.E0,1.E0));
#363=DIRECTION('',(1.E0,0.E0,0.E0));
#364=AXIS2_PLACEMENT_3D('',#361,#362,#363);
#365=PLANE('',#364);
#367=ORIENTED_EDGE('',*,*,#366,.F.);
#369=ORIENTED_EDGE('',*,*,#368,.F.);
#371=ORIENTED_EDGE('',*,*,#370,.F.);
#373=ORIENTED_EDGE('',*,*,#372,.T.);
#375=ORIENTED_EDGE('',*,*,#374,.T.);
#377=ORIENTED_EDGE('',*,*,#376,.T.);
#379=ORIENTED_EDGE('',*,*,#378,.T.);
#381=ORIENTED_EDGE('',*,*,#380,.T.);
#383=ORIENTED_EDGE('',*,*,#382,.T.);
#385=ORIENTED_EDGE('',*,*,#384,.T.);
#387=ORIENTED_EDGE('',*,*,#386,.T.);
#389=ORIENTED_EDGE('',*,*,#388,.T.);
#391=ORIENTED_EDGE('',*,*,#390,.T.);
#393=ORIENTED_EDGE('',*,*,#392,.T.);
#395=ORIENTED_EDGE('',*,*,#394,.T.);
#397=ORIENTED_EDGE('',*,*,#396,.T.);
#399=ORIENTED_EDGE('',*,*,#398,.T.);
#401=ORIENTED_EDGE('',*,*,#400,.T.);
#402=EDGE_LOOP('',(#367,#369,#371,#373,#375,#377,#379,#381,#383,#385,#387,#389,
#391,#393,#395,#397,#399,#401));
#403=FACE_OUTER_BOUND('',#402,.F.);
#405=ORIENTED_EDGE('',*,*,#404,.T.);
#407=ORIENTED_EDGE('',*,*,#406,.T.);
#408=EDGE_LOOP('',(#405,#407));
#409=FACE_BOUND('',#408,.F.);
#410=ADVANCED_FACE('',(#403,#409),#365,.F.);
#411=CARTESIAN_POINT('',(0.E0,1.25E-1,-1.6E-2));
#412=DIRECTION('',(0.E0,0.E0,1.E0));
#413=DIRECTION('',(1.E0,0.E0,0.E0));
#414=AXIS2_PLACEMENT_3D('',#411,#412,#413);
#415=CYLINDRICAL_SURFACE('',#414,2.75E-2);
#416=ORIENTED_EDGE('',*,*,#404,.F.);
#418=ORIENTED_EDGE('',*,*,#417,.T.);
#420=ORIENTED_EDGE('',*,*,#419,.T.);
#422=ORIENTED_EDGE('',*,*,#421,.F.);
#423=EDGE_LOOP('',(#416,#418,#420,#422));
#424=FACE_OUTER_BOUND('',#423,.F.);
#425=ADVANCED_FACE('',(#424),#415,.F.);
#426=CARTESIAN_POINT('',(0.E0,1.25E-1,-1.6E-2));
#427=DIRECTION('',(0.E0,0.E0,1.E0));
#428=DIRECTION('',(1.E0,0.E0,0.E0));
#429=AXIS2_PLACEMENT_3D('',#426,#427,#428);
#430=CYLINDRICAL_SURFACE('',#429,2.75E-2);
#431=ORIENTED_EDGE('',*,*,#406,.F.);
#432=ORIENTED_EDGE('',*,*,#421,.T.);
#434=ORIENTED_EDGE('',*,*,#433,.T.);
#435=ORIENTED_EDGE('',*,*,#417,.F.);
#436=EDGE_LOOP('',(#431,#432,#434,#435));
#437=FACE_OUTER_BOUND('',#436,.F.);
#438=ADVANCED_FACE('',(#437),#430,.F.);
#439=CARTESIAN_POINT('',(0.E0,0.E0,1.6E-2));
#440=DIRECTION('',(0.E0,0.E0,1.E0));
#441=DIRECTION('',(1.E0,0.E0,0.E0));
#442=AXIS2_PLACEMENT_3D('',#439,#440,#441);
#443=PLANE('',#442);
#445=ORIENTED_EDGE('',*,*,#444,.F.);
#447=ORIENTED_EDGE('',*,*,#446,.F.);
#449=ORIENTED_EDGE('',*,*,#448,.F.);
#451=ORIENTED_EDGE('',*,*,#450,.F.);
#453=ORIENTED_EDGE('',*,*,#452,.F.);
#455=ORIENTED_EDGE('',*,*,#454,.F.);
#457=ORIENTED_EDGE('',*,*,#456,.F.);
#459=ORIENTED_EDGE('',*,*,#458,.F.);
#461=ORIENTED_EDGE('',*,*,#460,.F.);
#463=ORIENTED_EDGE('',*,*,#462,.F.);
#465=ORIENTED_EDGE('',*,*,#464,.F.);
#467=ORIENTED_EDGE('',*,*,#466,.F.);
#469=ORIENTED_EDGE('',*,*,#468,.F.);
#471=ORIENTED_EDGE('',*,*,#470,.F.);
#473=ORIENTED_EDGE('',*,*,#472,.F.);
#475=ORIENTED_EDGE('',*,*,#474,.F.);
#477=ORIENTED_EDGE('',*,*,#476,.F.);
#479=ORIENTED_EDGE('',*,*,#478,.F.);
#480=EDGE_LOOP('',(#445,#447,#449,#451,#453,#455,#457,#459,#461,#463,#465,#467,
#469,#471,#473,#475,#477,#479));
#481=FACE_OUTER_BOUND('',#480,.F.);
#482=ORIENTED_EDGE('',*,*,#419,.F.);
#483=ORIENTED_EDGE('',*,*,#433,.F.);
#484=EDGE_LOOP('',(#482,#483));
#485=FACE_BOUND('',#484,.F.);
#486=ADVANCED_FACE('',(#481,#485),#443,.T.);
#487=CARTESIAN_POINT('',(7.35E-2,2.35E-1,0.E0));
#488=DIRECTION('',(7.071067811865E-1,7.071067811865E-1,0.E0));
#489=DIRECTION('',(0.E0,0.E0,-1.E0));
#490=AXIS2_PLACEMENT_3D('',#487,#488,#489);
#491=PLANE('',#490);
#492=ORIENTED_EDGE('',*,*,#366,.T.);
#494=ORIENTED_EDGE('',*,*,#493,.F.);
#495=ORIENTED_EDGE('',*,*,#444,.T.);
#497=ORIENTED_EDGE('',*,*,#496,.T.);
#499=ORIENTED_EDGE('',*,*,#498,.T.);
#501=ORIENTED_EDGE('',*,*,#500,.F.);
#502=EDGE_LOOP('',(#492,#494,#495,#497,#499,#501));
#503=FACE_OUTER_BOUND('',#502,.F.);
#504=ADVANCED_FACE('',(#503),#491,.T.);
#505=CARTESIAN_POINT('',(9.35E-2,0.E0,-1.6E-2));
#506=DIRECTION('',(1.E0,0.E0,0.E0));
#507=DIRECTION('',(0.E0,1.E0,0.E0));
#508=AXIS2_PLACEMENT_3D('',#505,#506,#507);
#509=PLANE('',#508);
#510=ORIENTED_EDGE('',*,*,#493,.T.);
#511=ORIENTED_EDGE('',*,*,#400,.F.);
#513=ORIENTED_EDGE('',*,*,#512,.T.);
#514=ORIENTED_EDGE('',*,*,#446,.T.);
#515=EDGE_LOOP('',(#510,#511,#513,#514));
#516=FACE_OUTER_BOUND('',#515,.F.);
#517=ADVANCED_FACE('',(#516),#509,.T.);
#518=CARTESIAN_POINT('',(1.25E-1,0.E0,-1.6E-2));
#519=DIRECTION('',(0.E0,1.E0,0.E0));
#520=DIRECTION('',(-1.E0,0.E0,0.E0));
#521=AXIS2_PLACEMENT_3D('',#518,#519,#520);
#522=PLANE('',#521);
#523=ORIENTED_EDGE('',*,*,#398,.F.);
#525=ORIENTED_EDGE('',*,*,#524,.T.);
#526=ORIENTED_EDGE('',*,*,#448,.T.);
#527=ORIENTED_EDGE('',*,*,#512,.F.);
#528=EDGE_LOOP('',(#523,#525,#526,#527));
#529=FACE_OUTER_BOUND('',#528,.F.);
#530=ADVANCED_FACE('',(#529),#522,.T.);
#531=CARTESIAN_POINT('',(1.25E-1,-1.65E-1,-1.6E-2));
#532=DIRECTION('',(1.E0,0.E0,0.E0));
#533=DIRECTION('',(0.E0,1.E0,0.E0));
#534=AXIS2_PLACEMENT_3D('',#531,#532,#533);
#535=PLANE('',#534);
#536=ORIENTED_EDGE('',*,*,#396,.F.);
#538=ORIENTED_EDGE('',*,*,#537,.T.);
#539=ORIENTED_EDGE('',*,*,#450,.T.);
#540=ORIENTED_EDGE('',*,*,#524,.F.);
#541=EDGE_LOOP('',(#536,#538,#539,#540));
#542=FACE_OUTER_BOUND('',#541,.F.);
#543=ADVANCED_FACE('',(#542),#535,.T.);
#544=CARTESIAN_POINT('',(1.148717572266E-1,-2.419572524089E-1,-1.6E-2));
#545=DIRECTION('',(9.914504817756E-1,-1.304834939252E-1,0.E0));
#546=DIRECTION('',(1.304834939252E-1,9.914504817756E-1,0.E0));
#547=AXIS2_PLACEMENT_3D('',#544,#545,#546);
#548=PLANE('',#547);
#549=ORIENTED_EDGE('',*,*,#394,.F.);
#551=ORIENTED_EDGE('',*,*,#550,.T.);
#552=ORIENTED_EDGE('',*,*,#452,.T.);
#553=ORIENTED_EDGE('',*,*,#537,.F.);
#554=EDGE_LOOP('',(#549,#551,#552,#553));
#555=FACE_OUTER_BOUND('',#554,.F.);
#556=ADVANCED_FACE('',(#555),#548,.T.);
#557=CARTESIAN_POINT('',(1.E-1,-2.4E-1,-1.6E-2));
#558=DIRECTION('',(0.E0,0.E0,1.E0));
#559=DIRECTION('',(1.E0,0.E0,0.E0));
#560=AXIS2_PLACEMENT_3D('',#557,#558,#559);
#561=CYLINDRICAL_SURFACE('',#560,1.5E-2);
#562=ORIENTED_EDGE('',*,*,#392,.F.);
#564=ORIENTED_EDGE('',*,*,#563,.T.);
#565=ORIENTED_EDGE('',*,*,#454,.T.);
#566=ORIENTED_EDGE('',*,*,#550,.F.);
#567=EDGE_LOOP('',(#562,#564,#565,#566));
#568=FACE_OUTER_BOUND('',#567,.F.);
#569=ADVANCED_FACE('',(#568),#561,.T.);
#570=CARTESIAN_POINT('',(7.7E-2,-1.65E-1,-1.6E-2));
#571=DIRECTION('',(-9.944751381215E-1,-1.049723756906E-1,0.E0));
#572=DIRECTION('',(1.049723756906E-1,-9.944751381215E-1,0.E0));
#573=AXIS2_PLACEMENT_3D('',#570,#571,#572);
#574=PLANE('',#573);
#575=ORIENTED_EDGE('',*,*,#390,.F.);
#577=ORIENTED_EDGE('',*,*,#576,.T.);
#578=ORIENTED_EDGE('',*,*,#456,.T.);
#579=ORIENTED_EDGE('',*,*,#563,.F.);
#580=EDGE_LOOP('',(#575,#577,#578,#579));
#581=FACE_OUTER_BOUND('',#580,.F.);
#582=ADVANCED_FACE('',(#581),#574,.T.);
#583=CARTESIAN_POINT('',(7.7E-2,-1.05E-1,-1.6E-2));
#584=DIRECTION('',(-1.E0,0.E0,0.E0));
#585=DIRECTION('',(0.E0,-1.E0,0.E0));
#586=AXIS2_PLACEMENT_3D('',#583,#584,#585);
#587=PLANE('',#586);
#588=ORIENTED_EDGE('',*,*,#388,.F.);
#590=ORIENTED_EDGE('',*,*,#589,.T.);
#591=ORIENTED_EDGE('',*,*,#458,.T.);
#592=ORIENTED_EDGE('',*,*,#576,.F.);
#593=EDGE_LOOP('',(#588,#590,#591,#592));
#594=FACE_OUTER_BOUND('',#593,.F.);
#595=ADVANCED_FACE('',(#594),#587,.T.);
#596=CARTESIAN_POINT('',(-7.7E-2,-1.05E-1,-1.6E-2));
#597=DIRECTION('',(0.E0,-1.E0,0.E0));
#598=DIRECTION('',(1.E0,0.E0,0.E0));
#599=AXIS2_PLACEMENT_3D('',#596,#597,#598);
#600=PLANE('',#599);
#601=ORIENTED_EDGE('',*,*,#386,.F.);
#603=ORIENTED_EDGE('',*,*,#602,.T.);
#604=ORIENTED_EDGE('',*,*,#460,.T.);
#605=ORIENTED_EDGE('',*,*,#589,.F.);
#606=EDGE_LOOP('',(#601,#603,#604,#605));
#607=FACE_OUTER_BOUND('',#606,.F.);
#608=ADVANCED_FACE('',(#607),#600,.T.);
#609=CARTESIAN_POINT('',(-7.7E-2,-1.65E-1,-1.6E-2));
#610=DIRECTION('',(1.E0,0.E0,0.E0));
#611=DIRECTION('',(0.E0,1.E0,0.E0));
#612=AXIS2_PLACEMENT_3D('',#609,#610,#611);
#613=PLANE('',#612);
#614=ORIENTED_EDGE('',*,*,#384,.F.);
#616=ORIENTED_EDGE('',*,*,#615,.T.);
#617=ORIENTED_EDGE('',*,*,#462,.T.);
#618=ORIENTED_EDGE('',*,*,#602,.F.);
#619=EDGE_LOOP('',(#614,#616,#617,#618));
#620=FACE_OUTER_BOUND('',#619,.F.);
#621=ADVANCED_FACE('',(#620),#613,.T.);
#622=CARTESIAN_POINT('',(-8.508287292818E-2,-2.415745856354E-1,-1.6E-2));
#623=DIRECTION('',(9.944751381215E-1,-1.049723756906E-1,0.E0));
#624=DIRECTION('',(1.049723756906E-1,9.944751381215E-1,0.E0));
#625=AXIS2_PLACEMENT_3D('',#622,#623,#624);
#626=PLANE('',#625);
#627=ORIENTED_EDGE('',*,*,#382,.F.);
#629=ORIENTED_EDGE('',*,*,#628,.T.);
#630=ORIENTED_EDGE('',*,*,#464,.T.);
#631=ORIENTED_EDGE('',*,*,#615,.F.);
#632=EDGE_LOOP('',(#627,#629,#630,#631));
#633=FACE_OUTER_BOUND('',#632,.F.);
#634=ADVANCED_FACE('',(#633),#626,.T.);
#635=CARTESIAN_POINT('',(-1.E-1,-2.4E-1,-1.6E-2));
#636=DIRECTION('',(0.E0,0.E0,1.E0));
#637=DIRECTION('',(1.E0,0.E0,0.E0));
#638=AXIS2_PLACEMENT_3D('',#635,#636,#637);
#639=CYLINDRICAL_SURFACE('',#638,1.5E-2);
#640=ORIENTED_EDGE('',*,*,#380,.F.);
#642=ORIENTED_EDGE('',*,*,#641,.T.);
#643=ORIENTED_EDGE('',*,*,#466,.T.);
#644=ORIENTED_EDGE('',*,*,#628,.F.);
#645=EDGE_LOOP('',(#640,#642,#643,#644));
#646=FACE_OUTER_BOUND('',#645,.F.);
#647=ADVANCED_FACE('',(#646),#639,.T.);
#648=CARTESIAN_POINT('',(-1.25E-1,-1.65E-1,-1.6E-2));
#649=DIRECTION('',(-9.914504817756E-1,-1.304834939252E-1,0.E0));
#650=DIRECTION('',(1.304834939252E-1,-9.914504817756E-1,0.E0));
#651=AXIS2_PLACEMENT_3D('',#648,#649,#650);
#652=PLANE('',#651);
#653=ORIENTED_EDGE('',*,*,#378,.F.);
#655=ORIENTED_EDGE('',*,*,#654,.T.);
#656=ORIENTED_EDGE('',*,*,#468,.T.);
#657=ORIENTED_EDGE('',*,*,#641,.F.);
#658=EDGE_LOOP('',(#653,#655,#656,#657));
#659=FACE_OUTER_BOUND('',#658,.F.);
#660=ADVANCED_FACE('',(#659),#652,.T.);
#661=CARTESIAN_POINT('',(-1.25E-1,0.E0,-1.6E-2));
#662=DIRECTION('',(-1.E0,0.E0,0.E0));
#663=DIRECTION('',(0.E0,-1.E0,0.E0));
#664=AXIS2_PLACEMENT_3D('',#661,#662,#663);
#665=PLANE('',#664);
#666=ORIENTED_EDGE('',*,*,#376,.F.);
#668=ORIENTED_EDGE('',*,*,#667,.T.);
#669=ORIENTED_EDGE('',*,*,#470,.T.);
#670=ORIENTED_EDGE('',*,*,#654,.F.);
#671=EDGE_LOOP('',(#666,#668,#669,#670));
#672=FACE_OUTER_BOUND('',#671,.F.);
#673=ADVANCED_FACE('',(#672),#665,.T.);
#674=CARTESIAN_POINT('',(-9.35E-2,0.E0,-1.6E-2));
#675=DIRECTION('',(0.E0,1.E0,0.E0));
#676=DIRECTION('',(-1.E0,0.E0,0.E0));
#677=AXIS2_PLACEMENT_3D('',#674,#675,#676);
#678=PLANE('',#677);
#679=ORIENTED_EDGE('',*,*,#374,.F.);
#681=ORIENTED_EDGE('',*,*,#680,.T.);
#682=ORIENTED_EDGE('',*,*,#472,.T.);
#683=ORIENTED_EDGE('',*,*,#667,.F.);
#684=EDGE_LOOP('',(#679,#681,#682,#683));
#685=FACE_OUTER_BOUND('',#684,.F.);
#686=ADVANCED_FACE('',(#685),#678,.T.);
#687=CARTESIAN_POINT('',(-9.35E-2,2.55E-1,-1.6E-2));
#688=DIRECTION('',(-1.E0,0.E0,0.E0));
#689=DIRECTION('',(0.E0,-1.E0,0.E0));
#690=AXIS2_PLACEMENT_3D('',#687,#688,#689);
#691=PLANE('',#690);
#693=ORIENTED_EDGE('',*,*,#692,.F.);
#694=ORIENTED_EDGE('',*,*,#474,.T.);
#695=ORIENTED_EDGE('',*,*,#680,.F.);
#696=ORIENTED_EDGE('',*,*,#372,.F.);
#697=EDGE_LOOP('',(#693,#694,#695,#696));
#698=FACE_OUTER_BOUND('',#697,.F.);
#699=ADVANCED_FACE('',(#698),#691,.T.);
#700=CARTESIAN_POINT('',(-7.35E-2,2.35E-1,0.E0));
#701=DIRECTION('',(-7.071067811865E-1,7.071067811865E-1,0.E0));
#702=DIRECTION('',(0.E0,0.E0,-1.E0));
#703=AXIS2_PLACEMENT_3D('',#700,#701,#702);
#704=PLANE('',#703);
#705=ORIENTED_EDGE('',*,*,#370,.T.);
#707=ORIENTED_EDGE('',*,*,#706,.T.);
#709=ORIENTED_EDGE('',*,*,#708,.F.);
#711=ORIENTED_EDGE('',*,*,#710,.F.);
#712=ORIENTED_EDGE('',*,*,#476,.T.);
#713=ORIENTED_EDGE('',*,*,#692,.T.);
#714=EDGE_LOOP('',(#705,#707,#709,#711,#712,#713));
#715=FACE_OUTER_BOUND('',#714,.F.);
#716=ADVANCED_FACE('',(#715),#704,.T.);
#717=CARTESIAN_POINT('',(0.E0,2.375E-1,-1.291427783760E-2));
#718=DIRECTION('',(0.E0,1.736481776669E-1,-9.848077530122E-1));
#719=DIRECTION('',(-1.E0,0.E0,0.E0));
#720=AXIS2_PLACEMENT_3D('',#717,#718,#719);
#721=PLANE('',#720);
#722=ORIENTED_EDGE('',*,*,#368,.T.);
#723=ORIENTED_EDGE('',*,*,#500,.T.);
#725=ORIENTED_EDGE('',*,*,#724,.F.);
#726=ORIENTED_EDGE('',*,*,#706,.F.);
#727=EDGE_LOOP('',(#722,#723,#725,#726));
#728=FACE_OUTER_BOUND('',#727,.F.);
#729=ADVANCED_FACE('',(#728),#721,.T.);
#730=CARTESIAN_POINT('',(9.35E-2,2.55E-1,-1.6E-2));
#731=DIRECTION('',(0.E0,1.E0,0.E0));
#732=DIRECTION('',(-1.E0,0.E0,0.E0));
#733=AXIS2_PLACEMENT_3D('',#730,#731,#732);
#734=PLANE('',#733);
#735=ORIENTED_EDGE('',*,*,#498,.F.);
#737=ORIENTED_EDGE('',*,*,#736,.T.);
#738=ORIENTED_EDGE('',*,*,#708,.T.);
#739=ORIENTED_EDGE('',*,*,#724,.T.);
#740=EDGE_LOOP('',(#735,#737,#738,#739));
#741=FACE_OUTER_BOUND('',#740,.F.);
#742=ADVANCED_FACE('',(#741),#734,.T.);
#743=CARTESIAN_POINT('',(0.E0,2.375E-1,1.291427783760E-2));
#744=DIRECTION('',(0.E0,1.736481776669E-1,9.848077530122E-1));
#745=DIRECTION('',(-1.E0,0.E0,0.E0));
#746=AXIS2_PLACEMENT_3D('',#743,#744,#745);
#747=PLANE('',#746);
#748=ORIENTED_EDGE('',*,*,#736,.F.);
#749=ORIENTED_EDGE('',*,*,#496,.F.);
#750=ORIENTED_EDGE('',*,*,#478,.T.);
#751=ORIENTED_EDGE('',*,*,#710,.T.);
#752=EDGE_LOOP('',(#748,#749,#750,#751));
#753=FACE_OUTER_BOUND('',#752,.F.);
#754=ADVANCED_FACE('',(#753),#747,.T.);
#755=CLOSED_SHELL('',(#410,#425,#438,#486,#504,#517,#530,#543,#556,#569,#582,
#595,#608,#621,#634,#647,#660,#673,#686,#699,#716,#729,#742,#754));
#756=MANIFOLD_SOLID_BREP('',#755);
#757=CARTESIAN_POINT('',(0.E0,0.E0,0.E0));
#758=DIRECTION('',(0.E0,0.E0,1.E0));
#759=DIRECTION('',(1.E0,0.E0,0.E0));
#760=AXIS2_PLACEMENT_3D('CSYS',#757,#758,#759);
#761=DIRECTION('',(0.E0,0.E0,1.E0));
#762=VECTOR('',#761,3.2E-2);
#763=CARTESIAN_POINT('',(0.E0,1.25E-1,-1.6E-2));
#764=LINE('',#763,#762);
#767=DIMENSIONAL_EXPONENTS(1.E0,0.E0,0.E0,0.E0,0.E0,0.E0,0.E0);
#769=LENGTH_MEASURE_WITH_UNIT(LENGTH_MEASURE(2.54E1),#768);
#770=(CONVERSION_BASED_UNIT('INCH',#769)LENGTH_UNIT()NAMED_UNIT(#767));
#771=DIMENSIONAL_EXPONENTS(0.E0,0.E0,0.E0,0.E0,0.E0,0.E0,0.E0);
#773=PLANE_ANGLE_MEASURE_WITH_UNIT(PLANE_ANGLE_MEASURE(1.745329251994E-2),#772);
#774=(CONVERSION_BASED_UNIT('DEGREE',#773)NAMED_UNIT(*)PLANE_ANGLE_UNIT());
#776=UNCERTAINTY_MEASURE_WITH_UNIT(LENGTH_MEASURE(6.141586300978E-5),#770,
'closure',
'Maximum model space distance between geometric entities at asserted connectivities');
#777=(GEOMETRIC_REPRESENTATION_CONTEXT(3)GLOBAL_UNCERTAINTY_ASSIGNED_CONTEXT((
#776))GLOBAL_UNIT_ASSIGNED_CONTEXT((#770,#774,#775))REPRESENTATION_CONTEXT
('ID1','3'));
#766=GEOMETRIC_SET('',(#765));
#781=SHAPE_REPRESENTATION_RELATIONSHIP('','',#780,#778);
#782=SHAPE_REPRESENTATION_RELATIONSHIP('','',#780,#779);
#783=APPLICATION_CONTEXT(
'CONFIGURATION CONTROLLED 3D DESIGNS OF MECHANICAL PARTS AND ASSEMBLIES');
#784=APPLICATION_PROTOCOL_DEFINITION('international standard',
'config_control_design',1994,#783);
#785=DESIGN_CONTEXT('',#783,'design');
#786=MECHANICAL_CONTEXT('',#783,'mechanical');
#787=PRODUCT('197084013','197084013','NOT SPECIFIED',(#786));
#788=PRODUCT_DEFINITION_FORMATION_WITH_SPECIFIED_SOURCE('1','LAST_VERSION',#787,
.MADE.);
#792=PRODUCT_CATEGORY('part','');
#793=PRODUCT_RELATED_PRODUCT_CATEGORY('detail','',(#787));
#794=PRODUCT_CATEGORY_RELATIONSHIP('','',#792,#793);
#795=SECURITY_CLASSIFICATION_LEVEL('unclassified');
#796=SECURITY_CLASSIFICATION('','',#795);
#797=CC_DESIGN_SECURITY_CLASSIFICATION(#796,(#788));
#798=APPROVAL_STATUS('approved');
#799=APPROVAL(#798,'');
#800=CC_DESIGN_APPROVAL(#799,(#796,#788,#789));
#801=CALENDAR_DATE(114,12,9);
#802=COORDINATED_UNIVERSAL_TIME_OFFSET(5,30,.AHEAD.);
#803=LOCAL_TIME(11,49,3.5E1,#802);
#804=DATE_AND_TIME(#801,#803);
#805=APPROVAL_DATE_TIME(#804,#799);
#806=DATE_TIME_ROLE('creation_date');
#807=CC_DESIGN_DATE_AND_TIME_ASSIGNMENT(#804,#806,(#789));
#808=DATE_TIME_ROLE('classification_date');
#809=CC_DESIGN_DATE_AND_TIME_ASSIGNMENT(#804,#808,(#796));
#810=PERSON('UNSPECIFIED','UNSPECIFIED',$,$,$,$);
#811=ORGANIZATION('UNSPECIFIED','UNSPECIFIED','UNSPECIFIED');
#812=PERSON_AND_ORGANIZATION(#810,#811);
#813=APPROVAL_ROLE('approver');
#814=APPROVAL_PERSON_ORGANIZATION(#812,#799,#813);
#815=PERSON_AND_ORGANIZATION_ROLE('creator');
#816=CC_DESIGN_PERSON_AND_ORGANIZATION_ASSIGNMENT(#812,#815,(#788,#789));
#817=PERSON_AND_ORGANIZATION_ROLE('design_supplier');
#818=CC_DESIGN_PERSON_AND_ORGANIZATION_ASSIGNMENT(#812,#817,(#788));
#819=PERSON_AND_ORGANIZATION_ROLE('classification_officer');
#820=CC_DESIGN_PERSON_AND_ORGANIZATION_ASSIGNMENT(#812,#819,(#796));
#821=PERSON_AND_ORGANIZATION_ROLE('design_owner');
#822=CC_DESIGN_PERSON_AND_ORGANIZATION_ASSIGNMENT(#812,#821,(#787));
#5=CIRCLE('',#4,2.75E-2);
#10=CIRCLE('',#9,2.75E-2);
#43=CIRCLE('',#42,1.5E-2);
#68=CIRCLE('',#67,1.5E-2);
#97=CIRCLE('',#96,2.75E-2);
#102=CIRCLE('',#101,2.75E-2);
#127=CIRCLE('',#126,1.5E-2);
#152=CIRCLE('',#151,1.5E-2);
#366=EDGE_CURVE('',#339,#340,#14,.T.);
#368=EDGE_CURVE('',#352,#339,#18,.T.);
#370=EDGE_CURVE('',#351,#352,#22,.T.);
#372=EDGE_CURVE('',#351,#279,#26,.T.);
#374=EDGE_CURVE('',#279,#280,#30,.T.);
#376=EDGE_CURVE('',#280,#282,#34,.T.);
#378=EDGE_CURVE('',#282,#284,#38,.T.);
#380=EDGE_CURVE('',#284,#286,#43,.T.);
#382=EDGE_CURVE('',#286,#288,#47,.T.);
#384=EDGE_CURVE('',#288,#290,#51,.T.);
#386=EDGE_CURVE('',#290,#292,#55,.T.);
#388=EDGE_CURVE('',#292,#294,#59,.T.);
#390=EDGE_CURVE('',#294,#296,#63,.T.);
#392=EDGE_CURVE('',#296,#298,#68,.T.);
#394=EDGE_CURVE('',#298,#300,#72,.T.);
#396=EDGE_CURVE('',#300,#302,#76,.T.);
#398=EDGE_CURVE('',#302,#304,#80,.T.);
#400=EDGE_CURVE('',#304,#340,#84,.T.);
#404=EDGE_CURVE('',#275,#276,#5,.T.);
#406=EDGE_CURVE('',#276,#275,#10,.T.);
#417=EDGE_CURVE('',#275,#307,#88,.T.);
#419=EDGE_CURVE('',#307,#308,#97,.T.);
#421=EDGE_CURVE('',#276,#308,#92,.T.);
#433=EDGE_CURVE('',#308,#307,#102,.T.);
#444=EDGE_CURVE('',#342,#344,#106,.T.);
#446=EDGE_CURVE('',#336,#342,#110,.T.);
#448=EDGE_CURVE('',#334,#336,#114,.T.);
#450=EDGE_CURVE('',#332,#334,#118,.T.);
#452=EDGE_CURVE('',#330,#332,#122,.T.);
#454=EDGE_CURVE('',#328,#330,#127,.T.);
#456=EDGE_CURVE('',#326,#328,#131,.T.);
#458=EDGE_CURVE('',#324,#326,#135,.T.);
#460=EDGE_CURVE('',#322,#324,#139,.T.);
#462=EDGE_CURVE('',#320,#322,#143,.T.);
#464=EDGE_CURVE('',#318,#320,#147,.T.);
#466=EDGE_CURVE('',#316,#318,#152,.T.);
#468=EDGE_CURVE('',#314,#316,#156,.T.);
#470=EDGE_CURVE('',#312,#314,#160,.T.);
#472=EDGE_CURVE('',#311,#312,#164,.T.);
#474=EDGE_CURVE('',#360,#311,#168,.T.);
#476=EDGE_CURVE('',#359,#360,#172,.T.);
#478=EDGE_CURVE('',#344,#359,#176,.T.);
#493=EDGE_CURVE('',#342,#340,#184,.T.);
#496=EDGE_CURVE('',#344,#347,#180,.T.);
#498=EDGE_CURVE('',#347,#348,#256,.T.);
#500=EDGE_CURVE('',#339,#348,#252,.T.);
#512=EDGE_CURVE('',#304,#336,#188,.T.);
#524=EDGE_CURVE('',#302,#334,#192,.T.);
#537=EDGE_CURVE('',#300,#332,#196,.T.);
#550=EDGE_CURVE('',#298,#330,#200,.T.);
#563=EDGE_CURVE('',#296,#328,#204,.T.);
#576=EDGE_CURVE('',#294,#326,#208,.T.);
#589=EDGE_CURVE('',#292,#324,#212,.T.);
#602=EDGE_CURVE('',#290,#322,#216,.T.);
#615=EDGE_CURVE('',#288,#320,#220,.T.);
#628=EDGE_CURVE('',#286,#318,#224,.T.);
#641=EDGE_CURVE('',#284,#316,#228,.T.);
#654=EDGE_CURVE('',#282,#314,#232,.T.);
#667=EDGE_CURVE('',#280,#312,#236,.T.);
#680=EDGE_CURVE('',#279,#311,#240,.T.);
#692=EDGE_CURVE('',#360,#351,#244,.T.);
#706=EDGE_CURVE('',#352,#356,#248,.T.);
#708=EDGE_CURVE('',#355,#356,#264,.T.);
#710=EDGE_CURVE('',#359,#355,#272,.T.);
#724=EDGE_CURVE('',#356,#348,#268,.T.);
#736=EDGE_CURVE('',#347,#355,#260,.T.);
#765=TRIMMED_CURVE('A_2',#764,(PARAMETER_VALUE(0.E0)),(PARAMETER_VALUE(1.E0)),
.T.,.UNSPECIFIED.);
#768=(LENGTH_UNIT()NAMED_UNIT(*)SI_UNIT(.MILLI.,.METRE.));
#772=(NAMED_UNIT(*)PLANE_ANGLE_UNIT()SI_UNIT($,.RADIAN.));
#775=(NAMED_UNIT(*)SI_UNIT($,.STERADIAN.)SOLID_ANGLE_UNIT());
#778=ADVANCED_BREP_SHAPE_REPRESENTATION('',(#756),#777);
#779=GEOMETRICALLY_BOUNDED_SURFACE_SHAPE_REPRESENTATION('',(#766),#777);
#780=SHAPE_REPRESENTATION('',(#760),#777);
#789=PRODUCT_DEFINITION('design','',#788,#785);
#790=PRODUCT_DEFINITION_SHAPE('','SHAPE FOR 197084013.',#789);
#791=SHAPE_DEFINITION_REPRESENTATION(#790,#780);
ENDSEC;
END-ISO-10303-21;
